<svg width="28" height="28" viewBox="0 0 28 28" fill="none" xmlns="http://www.w3.org/2000/svg">
<path d="M26.6321 11.6045H15.3951C15.1564 11.6045 14.9275 11.6993 14.7587 11.8681C14.5899 12.0369 14.4951 12.2658 14.4951 12.5045V16.0945C14.4951 16.3332 14.5899 16.5621 14.7587 16.7309C14.9275 16.8997 15.1564 16.9945 15.3951 16.9945H21.7231C21.031 18.787 19.7485 20.2901 18.0871 21.2555L20.7871 25.9265C22.8823 24.7486 24.6252 23.0328 25.8358 20.9564C27.0465 18.88 27.6811 16.5181 27.6741 14.1145C27.6799 13.5229 27.628 12.9321 27.5191 12.3505C27.4829 12.1416 27.3739 11.9522 27.2117 11.8157C27.0494 11.6792 26.8441 11.6044 26.6321 11.6045Z" fill="#167EE6"/>
<path d="M13.8981 22.3836C12.4271 22.3815 10.9825 21.9922 9.70953 21.255C8.43656 20.5177 7.38004 19.4585 6.6461 18.1836L1.9751 20.8756C2.87793 22.4428 4.08081 23.8167 5.51498 24.9188C6.94914 26.0208 8.58645 26.8293 10.3333 27.2981C12.0802 27.7669 13.9023 27.8869 15.6955 27.651C17.4887 27.4152 19.2179 26.8282 20.7841 25.9236V25.9176L18.0841 21.2466C16.8138 21.989 15.3694 22.3814 13.8981 22.3836Z" fill="#12B347"/>
<path d="M20.7849 25.9275V25.9215L18.085 21.2505C16.8139 21.9913 15.3691 22.3819 13.8979 22.3825V27.7725C16.3159 27.7737 18.6914 27.1373 20.7849 25.9275Z" fill="#0F993E"/>
<path d="M5.51393 13.9996C5.51436 12.5281 5.90496 11.083 6.64593 9.81163L1.97493 7.11963C0.762234 9.2099 0.123535 11.5836 0.123535 14.0001C0.123535 16.4167 0.762234 18.7904 1.97493 20.8806L6.64593 18.1886C5.90479 16.917 5.51418 15.4715 5.51393 13.9996Z" fill="#FFD500"/>
<path d="M13.8981 5.61457C15.8406 5.61229 17.7231 6.28777 19.2211 7.52457C19.3926 7.66493 19.61 7.73703 19.8314 7.72706C20.0528 7.7171 20.2628 7.62577 20.4211 7.47057L22.9651 4.92457C23.0527 4.83637 23.1212 4.73107 23.1663 4.61522C23.2114 4.49938 23.2322 4.37548 23.2273 4.25125C23.2224 4.12703 23.192 4.00514 23.138 3.89319C23.0839 3.78124 23.0073 3.68163 22.9131 3.60057C21.3818 2.26809 19.5745 1.29132 17.6208 0.740439C15.6672 0.189559 13.6158 0.0782507 11.614 0.41451C9.61221 0.750769 7.70976 1.52625 6.04333 2.68523C4.37691 3.8442 2.98789 5.35791 1.97607 7.11757L6.64708 9.80957C7.38156 8.53578 8.4382 7.47761 9.71093 6.74128C10.9837 6.00496 12.4277 5.61639 13.8981 5.61457Z" fill="#FF4B26"/>
<path d="M19.2209 7.52461C19.3925 7.66496 19.6098 7.73706 19.8313 7.7271C20.0527 7.71714 20.2627 7.6258 20.421 7.47061L22.969 4.92461C23.0566 4.83641 23.1251 4.7311 23.1702 4.61526C23.2153 4.49941 23.2361 4.37551 23.2312 4.25129C23.2263 4.12706 23.1959 4.00517 23.1418 3.89322C23.0878 3.78128 23.0112 3.68167 22.917 3.60061C20.4167 1.42345 17.2132 0.224325 13.8979 0.224609V5.61461C15.8405 5.61241 17.723 6.28788 19.2209 7.52461Z" fill="#D93F21"/>
</svg>
